<svg xmlns="http://www.w3.org/2000/svg" viewBox="0 0 48 48" role="img" aria-label="Google">
  <path fill="#FFC107" d="M43.6 20.5H42V20H24v8h11.3C33.7 32.7 29.3 36 24 36c-6.6 0-12-5.4-12-12s5.4-12 12-12c3 0 5.7 1.1 7.8 3l5.7-5.7C34.5 6.1 29.5 4 24 4 12.9 4 4 12.9 4 24s8.9 20 20 20 20-8.9 20-20c0-1.1-.1-2.2-.4-3.5z"/>
  <path fill="#FF3D00" d="M6.3 14.7l6.6 4.8C14.7 15 19 12 24 12c3 0 5.7 1.1 7.8 3l5.7-5.7C34.5 6.1 29.5 4 24 4 16.3 4 9.7 8.3 6.3 14.7z"/>
  <path fill="#4CAF50" d="M24 44c5.2 0 10.1-2 13.8-5.4l-6.4-5.2C29.4 35.9 26.8 37 24 37c-5.2 0-9.6-3.3-11.2-7.9l-6.6 5.1C9.6 40.6 16.3 44 24 44z"/>
  <path fill="#1976D2" d="M43.6 20.5H42V20H24v8h11.3c-1.3 3.7-4.6 6.4-8.3 6.4-5.2 0-9.6-3.3-11.2-7.9l-6.6 5.1C9.6 40.6 16.3 44 24 44c11.1 0 20-8.9 20-20 0-1.1-.1-2.2-.4-3.5z"/>
</svg>
